<?xml version="1.0" encoding="UTF-8"?>
<!DOCTYPE svg PUBLIC "-//W3C//DTD SVG 1.1//EN" "http://www.w3.org/Graphics/SVG/1.1/DTD/svg11.dtd">
<svg xmlns="http://www.w3.org/2000/svg" version="1.1" width="1920px" height="721px" style="shape-rendering:geometricPrecision; text-rendering:geometricPrecision; image-rendering:optimizeQuality; fill-rule:evenodd; clip-rule:evenodd" xmlns:xlink="http://www.w3.org/1999/xlink">
<g><path style="opacity:0.187" fill="#396dcd" d="M 370.5,-0.5 C 372.833,-0.5 375.167,-0.5 377.5,-0.5C 399.511,6.34643 405.011,20.0131 394,40.5C 391.577,41.785 389.744,43.6183 388.5,46C 396.197,62.5606 404.03,79.0606 412,95.5C 420.899,93.7036 427.232,97.0369 431,105.5C 432.011,111.98 429.844,117.147 424.5,121C 426.017,123.843 427.517,126.677 429,129.5C 446.254,124.363 460.088,129.197 470.5,144C 476.11,141.443 480.943,142.61 485,147.5C 486.599,156.064 483.099,160.064 474.5,159.5C 474.67,171.171 470.004,180.338 460.5,187C 457.28,188.562 454.28,190.396 451.5,192.5C 468.165,254.829 484.831,317.162 501.5,379.5C 507.622,379.801 513.289,381.468 518.5,384.5C 540.359,361.474 561.692,337.974 582.5,314C 577.685,305.681 579.019,298.514 586.5,292.5C 597.373,288.158 605.206,291.158 610,301.5C 611.16,309.675 607.993,315.509 600.5,319C 595.783,319.476 591.117,319.476 586.5,319C 565.695,341.807 544.862,364.641 524,387.5C 525.846,390.874 527.512,394.54 529,398.5C 529.497,400.81 529.663,403.143 529.5,405.5C 596.585,414.427 663.585,423.76 730.5,433.5C 740.268,412.95 756.268,405.283 778.5,410.5C 803.752,368.999 828.752,327.332 853.5,285.5C 834.122,269.441 830.622,250.441 843,228.5C 861.452,208.838 881.952,206.338 904.5,221C 921.941,237.647 924.108,256.147 911,276.5C 907.247,280.284 903.081,283.451 898.5,286C 908.976,305.786 919.309,325.619 929.5,345.5C 948.455,344.947 956.621,353.947 954,372.5C 945.659,384.54 935.159,386.707 922.5,379C 915.778,371.565 914.778,363.398 919.5,354.5C 920.947,352.597 922.614,350.93 924.5,349.5C 913.764,329.271 903.264,308.938 893,288.5C 882.272,293.434 871.439,293.434 860.5,288.5C 859.833,288.833 859.167,289.167 858.5,289.5C 833.248,331.001 808.248,372.668 783.5,414.5C 797.942,426.879 800.776,441.545 792,458.5C 780.735,471.547 766.902,475.38 750.5,470C 744.759,466.923 739.592,463.09 735,458.5C 703.031,474.713 670.864,490.547 638.5,506C 642.598,521.803 636.931,532.469 621.5,538C 614.868,539.171 608.535,538.338 602.5,535.5C 579.105,563.276 555.939,591.276 533,619.5C 535.119,623.622 536.619,628.122 537.5,633C 533.496,649.337 523.496,654.671 507.5,649C 498.15,641.763 496.317,632.929 502,622.5C 504.383,619.727 507.217,617.561 510.5,616C 516.244,615.432 521.911,615.432 527.5,616C 551.068,588.269 574.068,560.102 596.5,531.5C 589.333,523 588,513.667 592.5,503.5C 583.137,496.145 573.47,489.145 563.5,482.5C 551.562,489.633 542.062,487.3 535,475.5C 532.98,462.543 538.48,455.209 551.5,453.5C 558.996,454.161 564.496,457.828 568,464.5C 568.291,469.288 568.458,473.955 568.5,478.5C 578.138,484.972 587.638,491.639 597,498.5C 604.752,490.938 613.919,488.772 624.5,492C 629.525,493.689 633.359,496.856 636,501.5C 667.343,485.134 699.176,469.301 731.5,454C 732.128,449.874 731.795,445.707 730.5,441.5C 730.182,440.353 729.516,439.519 728.5,439C 661.751,429.824 595.084,420.324 528.5,410.5C 526.973,418.537 522.306,424.037 514.5,427C 500.783,431.259 489.95,427.425 482,415.5C 476.755,400.32 481.255,388.987 495.5,381.5C 483.154,335.117 470.654,288.784 458,242.5C 455.356,245.448 452.189,246.448 448.5,245.5C 440.935,260.798 433.268,275.965 425.5,291C 433.485,297.619 433.485,304.286 425.5,311C 423.975,312.009 422.308,312.509 420.5,312.5C 420.333,328.503 420.5,344.503 421,360.5C 431.925,364.085 435.925,371.418 433,382.5C 427.742,390.281 420.575,392.614 411.5,389.5C 402.208,401.918 393.542,414.752 385.5,428C 390.319,437.804 394.986,447.637 399.5,457.5C 403.833,458.833 408.167,458.833 412.5,457.5C 417.47,449.131 423.304,448.464 430,455.5C 432.506,461.667 430.672,466.167 424.5,469C 419.209,469.734 415.209,467.734 412.5,463C 409.118,462.176 405.784,462.343 402.5,463.5C 407.272,472.711 411.772,482.045 416,491.5C 424.134,490.662 430.801,493.329 436,499.5C 441.417,517.755 434.584,526.255 415.5,525C 409.272,522.939 405.272,518.772 403.5,512.5C 378.167,511.167 352.833,511.167 327.5,512.5C 324.342,518.617 319.342,520.784 312.5,519C 305.449,515.375 303.615,509.875 307,502.5C 309.178,501.353 310.678,499.687 311.5,497.5C 310.444,493.556 309.777,489.556 309.5,485.5C 295.794,484.418 289.96,477.084 292,463.5C 298.752,451.419 308.252,448.752 320.5,455.5C 328.432,464.198 328.432,472.864 320.5,481.5C 319.15,482.95 317.484,483.617 315.5,483.5C 315.881,488.237 316.714,492.904 318,497.5C 322.343,498.51 325.51,501.01 327.5,505C 352.84,505.833 378.173,505.666 403.5,504.5C 405.055,500.614 407.388,497.28 410.5,494.5C 405.772,484.044 400.772,473.711 395.5,463.5C 390.208,462.505 384.875,462.172 379.5,462.5C 376.671,475.935 368.337,481.435 354.5,479C 339.916,473.056 336.416,463.222 344,449.5C 350.871,442.04 359.038,440.04 368.5,443.5C 372.504,439.354 376.171,434.854 379.5,430C 376.565,423.297 373.232,416.797 369.5,410.5C 357.635,413.96 346.802,411.96 337,404.5C 297.844,438.657 259.01,473.157 220.5,508C 226.994,516.954 227.161,526.121 221,535.5C 209.703,546.866 197.203,548.366 183.5,540C 181.667,538.167 179.833,536.333 178,534.5C 142.074,550.876 105.907,566.876 69.5,582.5C 70.6518,587.898 70.6518,593.065 69.5,598C 115.01,625.586 160.343,653.42 205.5,681.5C 210.739,675.266 217.406,671.599 225.5,670.5C 227.874,648.563 229.041,626.563 229,604.5C 217.011,600.191 212.678,591.857 216,579.5C 225.777,565.414 237.11,564.081 250,575.5C 253.888,581.592 254.388,587.925 251.5,594.5C 287.833,621.333 324.167,648.167 360.5,675C 366.78,672.348 372.613,673.182 378,677.5C 381.833,685.005 380.166,691.005 373,695.5C 372.5,703.827 372.334,712.16 372.5,720.5C 370.5,720.5 368.5,720.5 366.5,720.5C 366.748,712.967 366.415,705.467 365.5,698C 363.162,695.067 360.662,692.234 358,689.5C 356.556,686.162 356.056,682.828 356.5,679.5C 320.193,653.026 284.026,626.36 248,599.5C 244.042,602.028 240.042,604.361 236,606.5C 234.816,628.17 233.649,649.837 232.5,671.5C 252.119,675.726 259.952,687.726 256,707.5C 253.777,712.65 250.611,716.983 246.5,720.5C 234.5,720.5 222.5,720.5 210.5,720.5C 200.047,711.189 197.381,700.023 202.5,687C 156.819,658.644 111.152,630.311 65.5,602C 59.1077,604.739 52.441,605.072 45.5,603C 35.2173,594.325 34.884,585.325 44.5,576C 52.2871,572.087 59.4538,572.92 66,578.5C 102.042,562.301 138.209,545.968 174.5,529.5C 173.451,521.76 174.951,514.427 179,507.5C 180.873,505.291 183.04,503.458 185.5,502C 168.121,472.745 151.121,443.245 134.5,413.5C 125.343,414.914 117.51,412.248 111,405.5C 104.696,391.938 108.53,382.438 122.5,377C 139.718,375.552 147.552,383.385 146,400.5C 144.71,404.24 142.543,407.407 139.5,410C 156.293,439.085 172.96,468.252 189.5,497.5C 194.063,498.35 198.563,498.016 203,496.5C 216.095,445.95 229.262,395.45 242.5,345C 234.876,341.973 228.209,337.473 222.5,331.5C 217.747,324.66 214.08,317.327 211.5,309.5C 196.437,309.051 181.437,309.717 166.5,311.5C 162.383,320.816 155.717,323.316 146.5,319C 141.536,314.727 140.37,309.561 143,303.5C 152.853,294.502 161.02,295.836 167.5,307.5C 181.833,306.856 196.167,305.856 210.5,304.5C 213.756,297.911 216.923,291.244 220,284.5C 223.008,280.326 226.508,276.659 230.5,273.5C 214.697,248.532 198.697,223.699 182.5,199C 180.833,198.333 179.167,198.333 177.5,199C 172.917,207.413 166.251,209.413 157.5,205C 153.321,200.416 152.487,195.249 155,189.5C 159.139,184.779 164.139,183.445 170,185.5C 171.654,182.725 171.321,180.058 169,177.5C 161.85,180.139 154.683,180.139 147.5,177.5C 107.506,234.819 68.0059,292.486 29,350.5C 28.3333,351.167 28.3333,351.833 29,352.5C 42.8139,366.987 42.9806,381.654 29.5,396.5C 20.5175,403.348 10.5175,405.348 -0.5,402.5C -0.5,383.833 -0.5,365.167 -0.5,346.5C 0.764682,345.486 1.43135,343.986 1.5,342C 1.18846,337.635 0.521795,333.468 -0.5,329.5C -0.5,312.833 -0.5,296.167 -0.5,279.5C 2.64438,300.646 5.47771,321.979 8,343.5C 12.7819,344.975 17.6152,346.642 22.5,348.5C 62.3048,290.196 102.305,232.029 142.5,174C 134.169,167.47 131.335,158.97 134,148.5C 142.496,132.156 155.33,127.656 172.5,135C 182.029,142.287 185.529,151.787 183,163.5C 195.699,142.965 208.199,122.298 220.5,101.5C 218.844,100.008 217.344,98.3416 216,96.5C 205.925,100.192 195.758,103.692 185.5,107C 184.559,119.28 178.226,123.613 166.5,120C 158.589,113.417 158.589,106.751 166.5,100C 172.813,97.2516 178.146,98.4183 182.5,103.5C 183.365,104.583 184.365,104.749 185.5,104C 195.5,100.333 205.5,96.6667 215.5,93C 214.577,90.9592 214.244,88.7925 214.5,86.5C 179.315,76.2394 144.315,65.406 109.5,54C 106.343,53.9304 103.343,54.7637 100.5,56.5C 94.366,54.8991 92.5327,51.2324 95,45.5C 98.3581,41.7818 101.858,41.6152 105.5,45C 106.474,47.287 107.807,49.287 109.5,51C 145.08,61.7868 180.58,72.9535 216,84.5C 220.255,77.46 226.422,74.96 234.5,77C 244.155,81.7977 246.488,88.9643 241.5,98.5C 236.255,103.638 230.088,105.638 223,104.5C 207.833,129.5 192.667,154.5 177.5,179.5C 180.709,184.752 184.042,189.918 187.5,195C 202.466,196.901 217.466,198.401 232.5,199.5C 235.116,189.589 241.616,184.256 252,183.5C 257.327,184.057 262.16,185.557 266.5,188C 285.909,172.633 304.909,156.799 323.5,140.5C 322.754,139.264 322.421,137.93 322.5,136.5C 306.645,136.178 290.811,135.511 275,134.5C 274.167,134.833 273.333,135.167 272.5,135.5C 271.073,139.936 268.073,141.936 263.5,141.5C 255.736,140.678 252.903,136.345 255,128.5C 260.667,123.167 266.333,123.167 272,128.5C 272.483,129.448 272.649,130.448 272.5,131.5C 289.173,132.459 305.839,132.459 322.5,131.5C 324.459,127.04 327.793,124.207 332.5,123C 331.627,105.22 330.627,87.3862 329.5,69.5C 324.873,66.9166 323.706,63.2499 326,58.5C 333.997,52.4483 339.163,54.4483 341.5,64.5C 363.489,76.6562 385.489,88.4895 407.5,100C 398.888,82.6076 390.388,65.1076 382,47.5C 367.673,51.1688 357.007,46.5021 350,33.5C 345.959,15.4127 352.793,4.07941 370.5,-0.5 Z M 338.5,67.5 C 340.179,67.8923 341.846,68.3923 343.5,69C 363.716,80.3596 383.883,91.8596 404,103.5C 403.628,107.206 403.461,110.873 403.5,114.5C 394.833,119.167 386.167,123.833 377.5,128.5C 372.023,124.297 366.857,124.63 362,129.5C 358.936,139.774 362.77,144.274 373.5,143C 374.966,142.365 376.3,141.531 377.5,140.5C 387.29,144.562 396.957,148.895 406.5,153.5C 404.583,162.67 406.249,171.17 411.5,179C 397.395,189.471 383.561,200.305 370,211.5C 366.215,203.429 362.049,195.595 357.5,188C 360.505,181.035 358.172,178.035 350.5,179C 348.787,180.378 347.453,182.045 346.5,184C 345.128,184.402 343.795,184.902 342.5,185.5C 336.503,178.563 331.003,178.896 326,186.5C 324.55,191.768 326.383,195.268 331.5,197C 338.547,198.447 342.214,195.613 342.5,188.5C 346.983,186.993 351.15,187.66 355,190.5C 359.309,198.286 363.475,206.119 367.5,214C 362.882,216.95 358.548,220.284 354.5,224C 343.518,224.943 332.518,225.443 321.5,225.5C 321.313,223.436 320.813,221.436 320,219.5C 317.554,217.041 315.054,214.708 312.5,212.5C 319.099,191.202 325.599,169.869 332,148.5C 334.405,146.512 337.238,145.345 340.5,145C 346.466,140.605 347.799,135.105 344.5,128.5C 342.473,125.819 339.807,124.153 336.5,123.5C 334.968,105.829 334.135,88.1627 334,70.5C 335.878,69.9473 337.378,68.9473 338.5,67.5 Z M 405.5,116.5 C 409.103,120.083 413.436,122.417 418.5,123.5C 419.58,125.996 420.914,128.33 422.5,130.5C 415.264,135.569 410.097,142.235 407,150.5C 397.617,145.893 388.117,141.393 378.5,137C 379.833,135.333 379.833,133.667 378.5,132C 387.498,126.834 396.498,121.667 405.5,116.5 Z M 348.5,228.5 C 327.543,245.113 306.543,261.779 285.5,278.5C 281.244,274.747 276.577,271.58 271.5,269C 276.833,264 276.833,259 271.5,254C 264.078,251.211 259.078,253.545 256.5,261C 256.975,262.763 257.642,264.43 258.5,266C 252.037,266.598 245.704,267.765 239.5,269.5C 238.369,267.926 238.202,266.259 239,264.5C 242.356,249.743 246.023,235.076 250,220.5C 260.284,221.844 267.284,217.51 271,207.5C 271.667,204.167 271.667,200.833 271,197.5C 269.972,195.156 269.306,192.823 269,190.5C 287.975,174.863 306.975,159.197 326,143.5C 327.464,144.459 328.297,145.792 328.5,147.5C 321.957,169.126 315.624,190.793 309.5,212.5C 301.044,211.808 294.878,215.141 291,222.5C 288.793,236.929 294.96,243.763 309.5,243C 316.5,241.333 320.833,237 322.5,230C 331.107,228.661 339.774,228.161 348.5,228.5 Z M 177.5,171.5 C 177.467,174.097 176.467,175.097 174.5,174.5C 175.188,173.145 176.188,172.145 177.5,171.5 Z M 414.5,183.5 C 417.333,185.478 420.333,187.311 423.5,189C 412.729,211.703 402.396,234.536 392.5,257.5C 375.309,255.524 367.476,263.191 369,280.5C 374.287,292.115 382.954,295.782 395,291.5C 399.015,293.592 403.181,295.259 407.5,296.5C 405.449,305.128 408.782,310.461 417.5,312.5C 417.28,328.507 416.78,344.507 416,360.5C 414.559,361.26 413.059,361.926 411.5,362.5C 392.621,338.448 374.287,313.948 356.5,289C 360.327,283.691 360.494,278.191 357,272.5C 350.339,268.202 344.006,268.536 338,273.5C 336.293,275.909 335.46,278.575 335.5,281.5C 321.876,283.993 308.376,286.993 295,290.5C 294.228,290.355 293.561,290.022 293,289.5C 291.642,287.141 290.642,284.807 290,282.5C 313.257,264.454 336.424,246.287 359.5,228C 362.227,227.182 364.894,227.348 367.5,228.5C 370.785,233.493 375.119,234.66 380.5,232C 384.944,228.288 385.444,224.121 382,219.5C 379.07,217.934 375.903,217.1 372.5,217C 386.976,206.35 400.976,195.183 414.5,183.5 Z M 176.5,190.5 C 177.933,191.833 179.267,193.333 180.5,195C 179.552,195.483 178.552,195.649 177.5,195.5C 177.371,193.784 177.038,192.117 176.5,190.5 Z M 428.5,191.5 C 434.141,193.056 439.808,193.39 445.5,192.5C 448.329,204.819 451.663,216.985 455.5,229C 444.897,226.603 440.397,230.77 442,241.5C 442.645,242.646 443.478,243.646 444.5,244.5C 437.551,259.565 430.217,274.398 422.5,289C 417.131,288.77 412.631,290.603 409,294.5C 405.5,293.224 402.333,291.391 399.5,289C 406.045,283.032 407.879,275.865 405,267.5C 402.961,264.312 400.794,261.312 398.5,258.5C 408.784,236.268 418.784,213.935 428.5,191.5 Z M 190.5,200.5 C 191.964,199.84 193.631,199.507 195.5,199.5C 207.804,200.972 220.137,201.972 232.5,202.5C 232.16,206.131 232.994,209.464 235,212.5C 238.239,216.078 241.739,219.245 245.5,222C 241.917,237.251 238.084,252.418 234,267.5C 219.974,244.761 205.474,222.428 190.5,200.5 Z M 367.5,221.5 C 367.5,222.5 367.5,223.5 367.5,224.5C 362.634,224.521 362.634,223.521 367.5,221.5 Z M 329.5,285.5 C 331.857,285.337 334.19,285.503 336.5,286C 338.167,287.667 339.833,289.333 341.5,291C 335.871,303.76 330.371,316.593 325,329.5C 317.35,330.446 314.683,334.446 317,341.5C 321.333,345.5 325.667,345.5 330,341.5C 330.406,337.039 330.072,332.706 329,328.5C 334.275,316.949 339.275,305.283 344,293.5C 347.227,293.047 350.227,292.047 353,290.5C 370.756,315.011 388.756,339.345 407,363.5C 404.617,367.147 403.117,371.314 402.5,376C 403.677,380.755 405.177,385.255 407,389.5C 399,400.833 391,412.167 383,423.5C 380.901,418.135 378.401,412.968 375.5,408C 388.024,400.786 393.524,389.953 392,375.5C 388.958,361.458 380.458,352.624 366.5,349C 349.375,346.481 336.541,352.647 328,367.5C 323.598,379.205 325.098,390.038 332.5,400C 294.141,434.029 255.808,468.029 217.5,502C 214.975,502.041 212.642,501.207 210.5,499.5C 209.369,497.926 209.202,496.259 210,494.5C 222.667,445.167 235.333,395.833 248,346.5C 266.61,347.863 281.277,340.863 292,325.5C 296.877,315.298 297.71,304.798 294.5,294C 306.406,291.761 318.072,288.927 329.5,285.5 Z M 380.5,433.5 C 385.303,441.44 389.303,449.774 392.5,458.5C 388.167,458.5 383.833,458.5 379.5,458.5C 378.703,453.521 376.37,449.355 372.5,446C 375.39,441.95 378.057,437.783 380.5,433.5 Z"/></g>
<g><path style="opacity:0.184" fill="#396dcd" d="M 1919.5,368.5 C 1919.5,385.167 1919.5,401.833 1919.5,418.5C 1905.9,422.578 1894.4,419.245 1885,408.5C 1857.44,422.199 1829.94,435.699 1802.5,449C 1806.36,462.283 1801.69,471.283 1788.5,476C 1782.36,476.653 1776.36,476.319 1770.5,475C 1751.05,498.742 1731.71,522.575 1712.5,546.5C 1719.22,557.502 1716.89,566.002 1705.5,572C 1690.4,574.056 1683.23,567.556 1684,552.5C 1686.89,545.277 1692.22,541.611 1700,541.5C 1702.83,542.203 1705.66,542.37 1708.5,542C 1728.23,518.613 1747.56,494.946 1766.5,471C 1761.13,463.405 1760.13,455.238 1763.5,446.5C 1755.41,440.375 1747.25,434.375 1739,428.5C 1731.4,434.05 1724.07,433.716 1717,427.5C 1711.41,418.257 1713.24,410.757 1722.5,405C 1732.14,402.339 1738.97,405.506 1743,414.5C 1743.09,418.253 1743.26,421.92 1743.5,425.5C 1750.97,430.472 1758.31,435.639 1765.5,441C 1766.5,441.667 1767.5,441.667 1768.5,441C 1780.26,432.99 1791.1,434.157 1801,444.5C 1828.57,430.467 1856.07,416.633 1883.5,403C 1882.33,399.206 1881,395.539 1879.5,392C 1822.87,383.671 1766.2,376.004 1709.5,369C 1701.37,383.403 1690.04,386.736 1675.5,379C 1666.68,370.697 1665.18,361.197 1671,350.5C 1674.36,347.76 1677.53,344.927 1680.5,342C 1670.23,302.757 1659.73,263.59 1649,224.5C 1646.5,226.87 1643.5,228.203 1640,228.5C 1634.23,241.122 1628.06,253.622 1621.5,266C 1628.7,273.696 1627.54,279.863 1618,284.5C 1617.82,298.075 1617.32,311.575 1616.5,325C 1625.91,327.089 1629.74,332.922 1628,342.5C 1623.81,350.355 1617.64,352.688 1609.5,349.5C 1601.71,360.246 1594.04,371.079 1586.5,382C 1590.95,390.391 1595.28,398.891 1599.5,407.5C 1603.11,408.489 1606.77,408.823 1610.5,408.5C 1611.04,404.13 1613.54,402.13 1618,402.5C 1625.46,403.41 1627.79,407.41 1625,414.5C 1619.45,418.957 1614.62,418.291 1610.5,412.5C 1607.55,411.345 1604.55,411.179 1601.5,412C 1605.51,420.515 1609.67,429.015 1614,437.5C 1621.33,435.642 1627,437.975 1631,444.5C 1634.58,457.007 1629.91,464.007 1617,465.5C 1609.27,464.928 1604.43,460.928 1602.5,453.5C 1580.83,453.949 1559.16,454.616 1537.5,455.5C 1532.73,461.347 1527.23,462.014 1521,457.5C 1517.38,451.335 1518.55,446.168 1524.5,442C 1523.46,438.6 1522.79,435.1 1522.5,431.5C 1509.02,429.521 1504.52,422.187 1509,409.5C 1517.22,400.774 1525.72,400.441 1534.5,408.5C 1539.15,418.245 1536.81,425.912 1527.5,431.5C 1528.49,435.105 1529.16,438.772 1529.5,442.5C 1533.16,442.472 1535.82,444.139 1537.5,447.5C 1559.17,448.833 1580.83,448.833 1602.5,447.5C 1603.76,443.984 1605.76,440.984 1608.5,438.5C 1604.2,429.896 1599.86,421.229 1595.5,412.5C 1591.22,411.508 1586.88,411.174 1582.5,411.5C 1579.48,423.358 1571.81,428.192 1559.5,426C 1548.92,420.603 1546.09,412.436 1551,401.5C 1556.93,394.727 1564.1,392.727 1572.5,395.5C 1576.21,392.114 1579.21,388.114 1581.5,383.5C 1579.36,377.888 1576.69,372.554 1573.5,367.5C 1563.48,370.706 1554.32,369.04 1546,362.5C 1512.83,391.667 1479.67,420.833 1446.5,450C 1451.91,458.558 1451.74,467.058 1446,475.5C 1439.77,481.853 1432.27,484.02 1423.5,482C 1418.43,480.048 1413.93,477.215 1410,473.5C 1379.57,487.189 1349.24,500.855 1319,514.5C 1320.07,518.498 1319.57,522.332 1317.5,526C 1356.07,550.203 1394.9,574.036 1434,597.5C 1438.75,592.54 1444.59,589.874 1451.5,589.5C 1452.98,570.521 1453.81,551.521 1454,532.5C 1442.82,528.302 1439.49,520.635 1444,509.5C 1453.53,498.861 1463.2,498.861 1473,509.5C 1474.7,514.128 1474.86,518.795 1473.5,523.5C 1474.31,524.814 1475.31,525.981 1476.5,527C 1504.86,547.179 1532.86,567.845 1560.5,589C 1562.96,589.97 1565.29,591.137 1567.5,592.5C 1578.04,589.884 1582.87,593.884 1582,604.5C 1580.67,607.167 1578.67,609.167 1576,610.5C 1576.15,624.826 1576.81,639.159 1578,653.5C 1590.88,658.022 1594.21,666.356 1588,678.5C 1582.38,683.282 1575.88,684.782 1568.5,683C 1559.3,677.532 1557.13,670.032 1562,660.5C 1564.46,656.721 1567.96,654.554 1572.5,654C 1571.62,639.564 1570.79,625.064 1570,610.5C 1564.06,607.957 1561.89,603.624 1563.5,597.5C 1532.19,574.685 1501.02,551.685 1470,528.5C 1467.3,530.902 1464.13,532.235 1460.5,532.5C 1459.02,551.459 1458.02,570.459 1457.5,589.5C 1473.99,593.497 1480.49,603.83 1477,620.5C 1466.84,637.662 1453.34,640.829 1436.5,630C 1428.9,622.002 1427.23,613.002 1431.5,603C 1392.3,578.57 1352.97,554.403 1313.5,530.5C 1304.46,534.741 1297.29,532.741 1292,524.5C 1290.68,510.816 1296.85,504.983 1310.5,507C 1312.09,508.046 1313.59,509.213 1315,510.5C 1346.26,497.037 1377.26,483.037 1408,468.5C 1406.17,459.007 1409,451.174 1416.5,445C 1402.21,420.248 1388.04,395.415 1374,370.5C 1361.28,372.519 1353.45,367.186 1350.5,354.5C 1354.32,339.924 1363.32,335.424 1377.5,341C 1386.83,349.667 1386.83,358.333 1377.5,367C 1392.46,392.418 1407.29,417.918 1422,443.5C 1425.19,442.043 1428.53,441.043 1432,440.5C 1442.73,398.133 1453.57,355.8 1464.5,313.5C 1464.17,312.5 1463.83,311.5 1463.5,310.5C 1457.06,307.857 1451.56,303.857 1447,298.5C 1444.44,293.04 1441.6,287.706 1438.5,282.5C 1425.84,281.438 1413.17,281.438 1400.5,282.5C 1398.37,290.092 1393.37,292.926 1385.5,291C 1378.39,285.677 1377.72,279.677 1383.5,273C 1390.9,269.298 1396.56,271.131 1400.5,278.5C 1403,278.833 1405.5,279.167 1408,279.5C 1417.49,278.905 1426.99,278.405 1436.5,278C 1438.51,275.664 1440.34,273.164 1442,270.5C 1444.16,262.349 1448.66,255.849 1455.5,251C 1441.83,230 1428.17,209 1414.5,188C 1412.87,187.506 1411.2,187.34 1409.5,187.5C 1408.68,191.817 1406.01,194.317 1401.5,195C 1391.3,194.454 1387.8,189.287 1391,179.5C 1394.37,175.388 1398.53,174.055 1403.5,175.5C 1405.78,173.148 1405.28,171.148 1402,169.5C 1396.51,172.121 1391.01,172.121 1385.5,169.5C 1350.66,217.982 1316.66,267.149 1283.5,317C 1292.79,325.993 1294.95,336.493 1290,348.5C 1279.35,362.475 1266.18,365.309 1250.5,357C 1241.2,349.09 1238.37,339.256 1242,327.5C 1243.87,325.431 1244.87,323.098 1245,320.5C 1195.67,273.833 1146.33,227.167 1097,180.5C 1090.32,183.873 1084.66,182.54 1080,176.5C 1077.28,166.573 1080.95,160.906 1091,159.5C 1101.25,161.319 1104.92,167.319 1102,177.5C 1151.28,224.111 1200.61,270.778 1250,317.5C 1253.2,315.117 1256.7,313.45 1260.5,312.5C 1258.17,292.5 1255.83,272.5 1253.5,252.5C 1245.74,252.928 1239.57,249.928 1235,243.5C 1229.18,229.639 1233.02,219.472 1246.5,213C 1262.81,209.834 1272.48,216.334 1275.5,232.5C 1274.01,242.822 1268.34,249.655 1258.5,253C 1261.2,272.091 1263.7,291.258 1266,310.5C 1270.05,311.728 1274.05,313.062 1278,314.5C 1312.08,265.34 1345.91,216.007 1379.5,166.5C 1371.69,158.03 1370.52,148.697 1376,138.5C 1382.89,130.888 1391.39,128.388 1401.5,131C 1412.08,135.639 1416.91,143.806 1416,155.5C 1426.04,138.584 1436.21,121.75 1446.5,105C 1445.69,103.028 1444.36,101.528 1442.5,100.5C 1434.28,103.687 1425.94,106.687 1417.5,109.5C 1415.25,121.137 1408.92,124.137 1398.5,118.5C 1394.57,113.998 1394.57,109.498 1398.5,105C 1404.09,101.437 1409.43,101.77 1414.5,106C 1423.32,104.173 1431.99,101.507 1440.5,98C 1441.76,96.1862 1441.76,94.3529 1440.5,92.5C 1410.27,83.0213 1380.11,73.3546 1350,63.5C 1347.5,65.4782 1344.67,65.9782 1341.5,65C 1337.94,62.4192 1337.61,59.4192 1340.5,56C 1342,55.5 1343.5,55 1345,54.5C 1348.63,56.4787 1351.8,58.9787 1354.5,62C 1383.59,71.2899 1412.76,80.4566 1442,89.5C 1443.84,87.3874 1446,85.5541 1448.5,84C 1458.57,80.9223 1464.9,84.4223 1467.5,94.5C 1465.2,104.496 1458.87,108.829 1448.5,107.5C 1436.2,128.298 1423.7,148.965 1411,169.5C 1410.33,170.5 1410.33,171.5 1411,172.5C 1413.62,176.248 1416.12,180.081 1418.5,184C 1431.11,185.929 1443.78,186.929 1456.5,187C 1462.99,173.802 1472.66,170.969 1485.5,178.5C 1501.98,165.189 1518.31,151.689 1534.5,138C 1533.66,136.989 1533.33,135.822 1533.5,134.5C 1520.14,134.209 1506.8,133.542 1493.5,132.5C 1490.91,135.804 1487.57,138.137 1483.5,139.5C 1476.7,138.236 1474.2,134.236 1476,127.5C 1481.81,121.832 1486.98,122.332 1491.5,129C 1505.49,130.106 1519.49,130.939 1533.5,131.5C 1534.38,127.613 1536.72,124.946 1540.5,123.5C 1541.3,108.163 1540.97,92.8293 1539.5,77.5C 1534.68,74.0565 1534.35,70.2232 1538.5,66C 1545.45,63.4818 1549.11,65.9818 1549.5,73.5C 1567.98,82.5704 1585.98,92.4037 1603.5,103C 1604.33,103.688 1605,103.521 1605.5,102.5C 1598.38,88.5917 1591.55,74.5917 1585,60.5C 1575.03,61.5692 1566.53,58.5692 1559.5,51.5C 1552.45,38.4928 1555.12,27.9928 1567.5,20C 1579.47,15.5478 1589.31,18.3811 1597,28.5C 1602.17,40.1529 1599.67,49.8196 1589.5,57.5C 1596.44,71.0441 1603.11,84.7107 1609.5,98.5C 1614.05,98.9824 1618.38,100.149 1622.5,102C 1628.17,108.994 1627.5,115.327 1620.5,121C 1621.2,122.893 1622.03,124.726 1623,126.5C 1629.05,126.508 1635.22,126.675 1641.5,127C 1649.44,129.609 1655.61,134.442 1660,141.5C 1668.78,137.938 1672.78,140.938 1672,150.5C 1669.86,153.321 1667.03,154.654 1663.5,154.5C 1662.4,167.584 1655.73,176.251 1643.5,180.5C 1657.66,234.13 1671.66,287.797 1685.5,341.5C 1690.86,341.621 1695.86,342.955 1700.5,345.5C 1718.49,326.009 1736.32,306.342 1754,286.5C 1753.14,283.849 1752.64,281.015 1752.5,278C 1754.73,266.678 1761.4,263.011 1772.5,267C 1778.54,271.638 1780.04,277.471 1777,284.5C 1771.97,290.15 1765.8,291.983 1758.5,290C 1740.16,309.341 1722.16,329.008 1704.5,349C 1708.27,352.706 1710.27,357.206 1710.5,362.5C 1767.72,370.793 1824.89,379.126 1882,387.5C 1884.8,376.702 1891.63,369.869 1902.5,367C 1908.38,365.99 1914.05,366.49 1919.5,368.5 Z M 1547.5,75.5 C 1566.5,85.3301 1585.16,95.6634 1603.5,106.5C 1602.67,109.606 1602.34,112.606 1602.5,115.5C 1594.93,119.065 1587.6,123.065 1580.5,127.5C 1573.37,122.605 1568.37,124.272 1565.5,132.5C 1568.19,140.603 1573.03,142.27 1580,137.5C 1587.65,141.384 1595.48,144.884 1603.5,148C 1604.3,152.414 1604.8,156.914 1605,161.5C 1605.85,164.698 1607.35,167.531 1609.5,170C 1597.83,179.167 1586.17,188.333 1574.5,197.5C 1570.45,191.243 1566.79,184.743 1563.5,178C 1565.6,173.689 1564.44,170.855 1560,169.5C 1557.04,172.228 1553.7,174.561 1550,176.5C 1547.17,171.112 1543.34,170.279 1538.5,174C 1534.49,184.299 1537.82,187.965 1548.5,185C 1550.23,183.211 1550.9,181.044 1550.5,178.5C 1554.41,176.868 1557.91,177.535 1561,180.5C 1564.5,186.833 1568,193.167 1571.5,199.5C 1567.87,203.63 1563.54,206.797 1558.5,209C 1550.8,209.231 1543.14,209.731 1535.5,210.5C 1532.71,206.212 1529.38,202.378 1525.5,199C 1531.15,180.564 1536.48,162.064 1541.5,143.5C 1553.27,141.916 1556.44,135.916 1551,125.5C 1549.09,124.308 1547.09,123.308 1545,122.5C 1544.16,107.835 1543.83,93.1687 1544,78.5C 1545.52,77.8366 1546.69,76.8366 1547.5,75.5 Z M 1603.5,117.5 C 1607.24,119.886 1611.24,121.886 1615.5,123.5C 1616.5,125.5 1617.5,127.5 1618.5,129.5C 1612.74,133.757 1608.24,139.091 1605,145.5C 1597.43,142.295 1589.93,138.962 1582.5,135.5C 1581.53,133.604 1581.2,131.604 1581.5,129.5C 1589.39,126.433 1596.72,122.433 1603.5,117.5 Z M 1555.5,212.5 C 1537.57,226.59 1519.73,240.923 1502,255.5C 1498.23,252.036 1494.07,249.203 1489.5,247C 1494.37,243.267 1494.7,239.1 1490.5,234.5C 1483.6,231.281 1479.27,233.448 1477.5,241C 1477.59,242.107 1477.92,243.107 1478.5,244C 1472.72,244.869 1467.05,245.869 1461.5,247C 1464.77,233.839 1468.1,220.672 1471.5,207.5C 1482.64,207.021 1488.97,201.355 1490.5,190.5C 1490.4,187.034 1489.4,183.868 1487.5,181C 1503.71,167.122 1520.21,153.622 1537,140.5C 1537.75,141.126 1538.58,141.626 1539.5,142C 1533.33,161.016 1527.66,180.182 1522.5,199.5C 1510.16,199.147 1504.99,205.147 1507,217.5C 1514.84,227.768 1523.18,228.101 1532,218.5C 1532.16,215.818 1533.5,214.151 1536,213.5C 1542.47,212.6 1548.97,212.267 1555.5,212.5 Z M 1409.5,165.5 C 1409.22,166.289 1408.72,166.956 1408,167.5C 1407.47,166.184 1407.97,165.517 1409.5,165.5 Z M 1577.5,202.5 C 1589.15,193.03 1600.98,183.697 1613,174.5C 1614.73,176.617 1616.9,178.117 1619.5,179C 1610.74,197.774 1602.07,216.607 1593.5,235.5C 1579.26,235.566 1572.43,242.566 1573,256.5C 1577.56,266.192 1585.06,269.525 1595.5,266.5C 1598.5,267.833 1601.5,269.167 1604.5,270.5C 1604.47,277.472 1607.64,282.139 1614,284.5C 1614.08,298.162 1613.91,311.829 1613.5,325.5C 1611.46,325.854 1609.63,325.854 1608,325.5C 1592.83,305 1577.67,284.5 1562.5,264C 1567.9,254.963 1565.4,249.13 1555,246.5C 1548.49,247.68 1544.65,251.514 1543.5,258C 1532.29,260.293 1521.12,262.793 1510,265.5C 1508.14,263.625 1506.64,261.458 1505.5,259C 1525.17,243.333 1544.83,227.667 1564.5,212C 1568.46,210.638 1571.46,211.638 1573.5,215C 1579.91,218.578 1584.24,216.745 1586.5,209.5C 1585.18,205.005 1582.18,202.672 1577.5,202.5 Z M 1624.5,181.5 C 1629.12,182.314 1633.79,182.647 1638.5,182.5C 1640.85,192.573 1643.52,202.573 1646.5,212.5C 1644.66,212.755 1642.66,212.922 1640.5,213C 1636.49,213.849 1634.49,216.349 1634.5,220.5C 1634.6,222.937 1635.6,224.937 1637.5,226.5C 1631.2,238.773 1625.2,251.106 1619.5,263.5C 1614.64,263.612 1610.47,265.279 1607,268.5C 1604.26,267.43 1601.76,265.93 1599.5,264C 1607.7,254.934 1607.03,246.601 1597.5,239C 1606.64,219.883 1615.64,200.716 1624.5,181.5 Z M 1421.5,189.5 C 1423.64,188.837 1425.97,188.503 1428.5,188.5C 1437.81,189.535 1447.14,190.201 1456.5,190.5C 1457.01,198.357 1461.01,203.524 1468.5,206C 1465.23,219.26 1461.73,232.427 1458,245.5C 1446.06,226.598 1433.89,207.931 1421.5,189.5 Z M 1542.5,260.5 C 1545.21,261.689 1547.54,263.522 1549.5,266C 1544.97,276.891 1540.3,287.725 1535.5,298.5C 1528.64,299.555 1526.48,303.221 1529,309.5C 1533.02,312.439 1536.68,312.105 1540,308.5C 1540.8,305.289 1540.3,302.289 1538.5,299.5C 1543.33,288.5 1548.17,277.5 1553,266.5C 1555.27,267.595 1557.44,267.261 1559.5,265.5C 1574.67,285.833 1589.83,306.167 1605,326.5C 1603.78,330.157 1602.62,333.991 1601.5,338C 1601.85,342.012 1603.52,345.345 1606.5,348C 1599.86,358.135 1592.86,367.968 1585.5,377.5C 1583.11,373.887 1581.11,370.054 1579.5,366C 1593.98,354.901 1596.82,341.401 1588,325.5C 1572.95,311.261 1557.62,310.927 1542,324.5C 1538.26,329.727 1536.09,335.561 1535.5,342C 1536.7,348.186 1538.54,354.019 1541,359.5C 1508.88,388.878 1476.21,417.544 1443,445.5C 1441.43,444.144 1439.6,443.477 1437.5,443.5C 1447.86,400.402 1458.69,357.402 1470,314.5C 1476.67,312.912 1483.51,311.412 1490.5,310C 1508.3,301.227 1514.97,287.061 1510.5,267.5C 1521.54,266.403 1532.21,264.07 1542.5,260.5 Z M 1582.5,387.5 C 1586.79,393.905 1590.46,400.739 1593.5,408C 1589.79,408.825 1586.12,408.659 1582.5,407.5C 1581.68,403.865 1579.85,400.865 1577,398.5C 1578.26,394.647 1580.09,390.981 1582.5,387.5 Z"/></g>
<g><path style="opacity:0.19" fill="#396dcd" d="M -0.5,228.5 C 14.0524,233.238 20.2191,243.238 18,258.5C 14.8682,267.465 8.7015,273.132 -0.5,275.5C -0.5,259.833 -0.5,244.167 -0.5,228.5 Z"/></g>
</svg>
